<?xml version="1.0" encoding="utf-8" standalone="no"?>
<!DOCTYPE svg PUBLIC "-//W3C//DTD SVG 1.1//EN"
  "http://www.w3.org/Graphics/SVG/1.1/DTD/svg11.dtd">
<!-- Created with matplotlib (https://matplotlib.org/) -->
<svg height="345.6pt" version="1.1" viewBox="0 0 460.8 345.6" width="460.8pt" xmlns="http://www.w3.org/2000/svg" xmlns:xlink="http://www.w3.org/1999/xlink">
 <defs>
  <style type="text/css">
*{stroke-linecap:butt;stroke-linejoin:round;}
  </style>
 </defs>
 <g id="figure_1">
  <g id="patch_1">
   <path d="M 0 345.6 
L 460.8 345.6 
L 460.8 0 
L 0 0 
z
" style="fill:#ffffff;"/>
  </g>
  <g id="axes_1">
   <g id="patch_2">
    <path d="M 57.6 307.584 
L 414.72 307.584 
L 414.72 41.472 
L 57.6 41.472 
z
" style="fill:#ffffff;"/>
   </g>
   <g id="PathCollection_1">
    <defs>
     <path d="M -0 4.242641 
L 2.545584 0 
L 0 -4.242641 
L -2.545584 -0 
z
" id="m1687ad932a" style="stroke:#3274a1;"/>
    </defs>
    <g clip-path="url(#p9ffe8fd185)">
     <use style="fill:#3274a1;stroke:#3274a1;" x="102.24" xlink:href="#m1687ad932a" y="213.031639"/>
     <use style="fill:#3274a1;stroke:#3274a1;" x="102.24" xlink:href="#m1687ad932a" y="217.719679"/>
     <use style="fill:#3274a1;stroke:#3274a1;" x="102.24" xlink:href="#m1687ad932a" y="213.145072"/>
    </g>
   </g>
   <g id="PatchCollection_1">
    <path clip-path="url(#p9ffe8fd185)" d="M 98.272 295.488 
L 106.208 295.488 
L 106.208 219.342452 
L 98.272 219.342452 
z
" style="fill:#ffffff;"/>
    <path clip-path="url(#p9ffe8fd185)" d="M 94.304 295.488 
L 110.176 295.488 
L 110.176 228.52991 
L 94.304 228.52991 
z
" style="fill:#e5eef3;"/>
    <path clip-path="url(#p9ffe8fd185)" d="M 90.336 295.488 
L 114.144 295.488 
L 114.144 239.21479 
L 90.336 239.21479 
z
" style="fill:#cbdce8;"/>
    <path clip-path="url(#p9ffe8fd185)" d="M 86.368 295.488 
L 118.112 295.488 
L 118.112 254.824826 
L 86.368 254.824826 
z
" style="fill:#b2cbdc;"/>
    <path clip-path="url(#p9ffe8fd185)" d="M 82.4 295.488 
L 122.08 295.488 
L 122.08 264.232729 
L 82.4 264.232729 
z
" style="fill:#98b9d0;"/>
    <path clip-path="url(#p9ffe8fd185)" d="M 78.432 295.488 
L 126.048 295.488 
L 126.048 275.912133 
L 78.432 275.912133 
z
" style="fill:#7ea8c4;"/>
    <path clip-path="url(#p9ffe8fd185)" d="M 74.464 295.488 
L 130.016 295.488 
L 130.016 283.770318 
L 74.464 283.770318 
z
" style="fill:#6496b9;"/>
    <path clip-path="url(#p9ffe8fd185)" d="M 70.496 295.488 
L 133.984 295.488 
L 133.984 290.913393 
L 70.496 290.913393 
z
" style="fill:#4b85ad;"/>
    <path clip-path="url(#p9ffe8fd185)" d="M 66.528 295.488 
L 137.952 295.488 
L 137.952 295.488 
L 66.528 295.488 
z
" style="fill:#3274a1;"/>
   </g>
   <g id="PathCollection_2">
    <defs>
     <path d="M -0 4.242641 
L 2.545584 0 
L 0 -4.242641 
L -2.545584 -0 
z
" id="m4dbd2fddbd" style="stroke:#e1812c;"/>
    </defs>
    <g clip-path="url(#p9ffe8fd185)">
     <use style="fill:#e1812c;stroke:#e1812c;" x="191.52" xlink:href="#m4dbd2fddbd" y="208.750415"/>
     <use style="fill:#e1812c;stroke:#e1812c;" x="191.52" xlink:href="#m4dbd2fddbd" y="56.597595"/>
     <use style="fill:#e1812c;stroke:#e1812c;" x="191.52" xlink:href="#m4dbd2fddbd" y="203.135305"/>
    </g>
   </g>
   <g id="PatchCollection_2">
    <path clip-path="url(#p9ffe8fd185)" d="M 187.552 295.488 
L 195.488 295.488 
L 195.488 214.140775 
L 187.552 214.140775 
z
" style="fill:#ffffff;"/>
    <path clip-path="url(#p9ffe8fd185)" d="M 183.584 295.488 
L 199.456 295.488 
L 199.456 223.608697 
L 183.584 223.608697 
z
" style="fill:#fbefe5;"/>
    <path clip-path="url(#p9ffe8fd185)" d="M 179.616 295.488 
L 203.424 295.488 
L 203.424 239.221013 
L 179.616 239.221013 
z
" style="fill:#f7dfca;"/>
    <path clip-path="url(#p9ffe8fd185)" d="M 175.648 295.488 
L 207.392 295.488 
L 207.392 252.864945 
L 175.648 252.864945 
z
" style="fill:#f4d0b0;"/>
    <path clip-path="url(#p9ffe8fd185)" d="M 171.68 295.488 
L 211.36 295.488 
L 211.36 263.319114 
L 171.68 263.319114 
z
" style="fill:#f0c095;"/>
    <path clip-path="url(#p9ffe8fd185)" d="M 167.712 295.488 
L 215.328 295.488 
L 215.328 274.175465 
L 167.712 274.175465 
z
" style="fill:#ecb07b;"/>
    <path clip-path="url(#p9ffe8fd185)" d="M 163.744 295.488 
L 219.296 295.488 
L 219.296 283.75683 
L 163.744 283.75683 
z
" style="fill:#e8a060;"/>
    <path clip-path="url(#p9ffe8fd185)" d="M 159.776 295.488 
L 223.264 295.488 
L 223.264 290.357295 
L 159.776 290.357295 
z
" style="fill:#e59046;"/>
    <path clip-path="url(#p9ffe8fd185)" d="M 155.808 295.488 
L 227.232 295.488 
L 227.232 295.488 
L 155.808 295.488 
z
" style="fill:#e1812c;"/>
   </g>
   <g id="PathCollection_3">
    <defs>
     <path d="M -0 4.242641 
L 2.545584 0 
L 0 -4.242641 
L -2.545584 -0 
z
" id="mf5f9ff659f" style="stroke:#3a923a;"/>
    </defs>
    <g clip-path="url(#p9ffe8fd185)">
     <use style="fill:#3a923a;stroke:#3a923a;" x="280.8" xlink:href="#mf5f9ff659f" y="213.031639"/>
     <use style="fill:#3a923a;stroke:#3a923a;" x="280.8" xlink:href="#mf5f9ff659f" y="217.719679"/>
     <use style="fill:#3a923a;stroke:#3a923a;" x="280.8" xlink:href="#mf5f9ff659f" y="213.145072"/>
    </g>
   </g>
   <g id="PatchCollection_3">
    <path clip-path="url(#p9ffe8fd185)" d="M 276.832 295.488 
L 284.768 295.488 
L 284.768 219.342452 
L 276.832 219.342452 
z
" style="fill:#ffffff;"/>
    <path clip-path="url(#p9ffe8fd185)" d="M 272.864 295.488 
L 288.736 295.488 
L 288.736 228.52991 
L 272.864 228.52991 
z
" style="fill:#e6f1e6;"/>
    <path clip-path="url(#p9ffe8fd185)" d="M 268.896 295.488 
L 292.704 295.488 
L 292.704 239.21479 
L 268.896 239.21479 
z
" style="fill:#cee4ce;"/>
    <path clip-path="url(#p9ffe8fd185)" d="M 264.928 295.488 
L 296.672 295.488 
L 296.672 254.824826 
L 264.928 254.824826 
z
" style="fill:#b5d6b5;"/>
    <path clip-path="url(#p9ffe8fd185)" d="M 260.96 295.488 
L 300.64 295.488 
L 300.64 264.232729 
L 260.96 264.232729 
z
" style="fill:#9cc89c;"/>
    <path clip-path="url(#p9ffe8fd185)" d="M 256.992 295.488 
L 304.608 295.488 
L 304.608 275.912133 
L 256.992 275.912133 
z
" style="fill:#84ba84;"/>
    <path clip-path="url(#p9ffe8fd185)" d="M 253.024 295.488 
L 308.576 295.488 
L 308.576 283.770318 
L 253.024 283.770318 
z
" style="fill:#6bad6b;"/>
    <path clip-path="url(#p9ffe8fd185)" d="M 249.056 295.488 
L 312.544 295.488 
L 312.544 290.913393 
L 249.056 290.913393 
z
" style="fill:#529f52;"/>
    <path clip-path="url(#p9ffe8fd185)" d="M 245.088 295.488 
L 316.512 295.488 
L 316.512 295.488 
L 245.088 295.488 
z
" style="fill:#3a923a;"/>
   </g>
   <g id="PathCollection_4">
    <defs>
     <path d="M -0 4.242641 
L 2.545584 0 
L 0 -4.242641 
L -2.545584 -0 
z
" id="m7ab79adb34" style="stroke:#c03d3e;"/>
    </defs>
    <g clip-path="url(#p9ffe8fd185)">
     <use style="fill:#c03d3e;stroke:#c03d3e;" x="370.08" xlink:href="#m7ab79adb34" y="208.750415"/>
     <use style="fill:#c03d3e;stroke:#c03d3e;" x="370.08" xlink:href="#m7ab79adb34" y="56.597595"/>
     <use style="fill:#c03d3e;stroke:#c03d3e;" x="370.08" xlink:href="#m7ab79adb34" y="203.135305"/>
    </g>
   </g>
   <g id="PatchCollection_4">
    <path clip-path="url(#p9ffe8fd185)" d="M 366.112 295.488 
L 374.048 295.488 
L 374.048 214.140775 
L 366.112 214.140775 
z
" style="fill:#ffffff;"/>
    <path clip-path="url(#p9ffe8fd185)" d="M 362.144 295.488 
L 378.016 295.488 
L 378.016 223.608697 
L 362.144 223.608697 
z
" style="fill:#f7e7e7;"/>
    <path clip-path="url(#p9ffe8fd185)" d="M 358.176 295.488 
L 381.984 295.488 
L 381.984 239.221013 
L 358.176 239.221013 
z
" style="fill:#efcece;"/>
    <path clip-path="url(#p9ffe8fd185)" d="M 354.208 295.488 
L 385.952 295.488 
L 385.952 252.864945 
L 354.208 252.864945 
z
" style="fill:#e7b6b6;"/>
    <path clip-path="url(#p9ffe8fd185)" d="M 350.24 295.488 
L 389.92 295.488 
L 389.92 263.319114 
L 350.24 263.319114 
z
" style="fill:#df9e9e;"/>
    <path clip-path="url(#p9ffe8fd185)" d="M 346.272 295.488 
L 393.888 295.488 
L 393.888 274.175465 
L 346.272 274.175465 
z
" style="fill:#d88586;"/>
    <path clip-path="url(#p9ffe8fd185)" d="M 342.304 295.488 
L 397.856 295.488 
L 397.856 283.75683 
L 342.304 283.75683 
z
" style="fill:#d06d6d;"/>
    <path clip-path="url(#p9ffe8fd185)" d="M 338.336 295.488 
L 401.824 295.488 
L 401.824 290.357295 
L 338.336 290.357295 
z
" style="fill:#c85455;"/>
    <path clip-path="url(#p9ffe8fd185)" d="M 334.368 295.488 
L 405.792 295.488 
L 405.792 295.488 
L 334.368 295.488 
z
" style="fill:#c03d3e;"/>
   </g>
   <g id="matplotlib.axis_1">
    <g id="xtick_1">
     <g id="line2d_1">
      <defs>
       <path d="M 0 0 
L 0 3.5 
" id="mfd1d519578" style="stroke:#000000;stroke-width:0.8;"/>
      </defs>
      <g>
       <use style="stroke:#000000;stroke-width:0.8;" x="102.24" xlink:href="#mfd1d519578" y="307.584"/>
      </g>
     </g>
     <g id="text_1">
      <!-- a -->
      <defs>
       <path d="M 34.28125 27.484375 
Q 23.390625 27.484375 19.1875 25 
Q 14.984375 22.515625 14.984375 16.5 
Q 14.984375 11.71875 18.140625 8.90625 
Q 21.296875 6.109375 26.703125 6.109375 
Q 34.1875 6.109375 38.703125 11.40625 
Q 43.21875 16.703125 43.21875 25.484375 
L 43.21875 27.484375 
z
M 52.203125 31.203125 
L 52.203125 0 
L 43.21875 0 
L 43.21875 8.296875 
Q 40.140625 3.328125 35.546875 0.953125 
Q 30.953125 -1.421875 24.3125 -1.421875 
Q 15.921875 -1.421875 10.953125 3.296875 
Q 6 8.015625 6 15.921875 
Q 6 25.140625 12.171875 29.828125 
Q 18.359375 34.515625 30.609375 34.515625 
L 43.21875 34.515625 
L 43.21875 35.40625 
Q 43.21875 41.609375 39.140625 45 
Q 35.0625 48.390625 27.6875 48.390625 
Q 23 48.390625 18.546875 47.265625 
Q 14.109375 46.140625 10.015625 43.890625 
L 10.015625 52.203125 
Q 14.9375 54.109375 19.578125 55.046875 
Q 24.21875 56 28.609375 56 
Q 40.484375 56 46.34375 49.84375 
Q 52.203125 43.703125 52.203125 31.203125 
z
" id="DejaVuSans-97"/>
      </defs>
      <g transform="translate(99.175938 322.182437)scale(0.1 -0.1)">
       <use xlink:href="#DejaVuSans-97"/>
      </g>
     </g>
    </g>
    <g id="xtick_2">
     <g id="line2d_2">
      <g>
       <use style="stroke:#000000;stroke-width:0.8;" x="191.52" xlink:href="#mfd1d519578" y="307.584"/>
      </g>
     </g>
     <g id="text_2">
      <!-- b -->
      <defs>
       <path d="M 48.6875 27.296875 
Q 48.6875 37.203125 44.609375 42.84375 
Q 40.53125 48.484375 33.40625 48.484375 
Q 26.265625 48.484375 22.1875 42.84375 
Q 18.109375 37.203125 18.109375 27.296875 
Q 18.109375 17.390625 22.1875 11.75 
Q 26.265625 6.109375 33.40625 6.109375 
Q 40.53125 6.109375 44.609375 11.75 
Q 48.6875 17.390625 48.6875 27.296875 
z
M 18.109375 46.390625 
Q 20.953125 51.265625 25.265625 53.625 
Q 29.59375 56 35.59375 56 
Q 45.5625 56 51.78125 48.09375 
Q 58.015625 40.1875 58.015625 27.296875 
Q 58.015625 14.40625 51.78125 6.484375 
Q 45.5625 -1.421875 35.59375 -1.421875 
Q 29.59375 -1.421875 25.265625 0.953125 
Q 20.953125 3.328125 18.109375 8.203125 
L 18.109375 0 
L 9.078125 0 
L 9.078125 75.984375 
L 18.109375 75.984375 
z
" id="DejaVuSans-98"/>
      </defs>
      <g transform="translate(188.345781 322.182437)scale(0.1 -0.1)">
       <use xlink:href="#DejaVuSans-98"/>
      </g>
     </g>
    </g>
    <g id="xtick_3">
     <g id="line2d_3">
      <g>
       <use style="stroke:#000000;stroke-width:0.8;" x="280.8" xlink:href="#mfd1d519578" y="307.584"/>
      </g>
     </g>
     <g id="text_3">
      <!-- c -->
      <defs>
       <path d="M 48.78125 52.59375 
L 48.78125 44.1875 
Q 44.96875 46.296875 41.140625 47.34375 
Q 37.3125 48.390625 33.40625 48.390625 
Q 24.65625 48.390625 19.8125 42.84375 
Q 14.984375 37.3125 14.984375 27.296875 
Q 14.984375 17.28125 19.8125 11.734375 
Q 24.65625 6.203125 33.40625 6.203125 
Q 37.3125 6.203125 41.140625 7.25 
Q 44.96875 8.296875 48.78125 10.40625 
L 48.78125 2.09375 
Q 45.015625 0.34375 40.984375 -0.53125 
Q 36.96875 -1.421875 32.421875 -1.421875 
Q 20.0625 -1.421875 12.78125 6.34375 
Q 5.515625 14.109375 5.515625 27.296875 
Q 5.515625 40.671875 12.859375 48.328125 
Q 20.21875 56 33.015625 56 
Q 37.15625 56 41.109375 55.140625 
Q 45.0625 54.296875 48.78125 52.59375 
z
" id="DejaVuSans-99"/>
      </defs>
      <g transform="translate(278.050781 322.182437)scale(0.1 -0.1)">
       <use xlink:href="#DejaVuSans-99"/>
      </g>
     </g>
    </g>
    <g id="xtick_4">
     <g id="line2d_4">
      <g>
       <use style="stroke:#000000;stroke-width:0.8;" x="370.08" xlink:href="#mfd1d519578" y="307.584"/>
      </g>
     </g>
     <g id="text_4">
      <!-- d -->
      <defs>
       <path d="M 45.40625 46.390625 
L 45.40625 75.984375 
L 54.390625 75.984375 
L 54.390625 0 
L 45.40625 0 
L 45.40625 8.203125 
Q 42.578125 3.328125 38.25 0.953125 
Q 33.9375 -1.421875 27.875 -1.421875 
Q 17.96875 -1.421875 11.734375 6.484375 
Q 5.515625 14.40625 5.515625 27.296875 
Q 5.515625 40.1875 11.734375 48.09375 
Q 17.96875 56 27.875 56 
Q 33.9375 56 38.25 53.625 
Q 42.578125 51.265625 45.40625 46.390625 
z
M 14.796875 27.296875 
Q 14.796875 17.390625 18.875 11.75 
Q 22.953125 6.109375 30.078125 6.109375 
Q 37.203125 6.109375 41.296875 11.75 
Q 45.40625 17.390625 45.40625 27.296875 
Q 45.40625 37.203125 41.296875 42.84375 
Q 37.203125 48.484375 30.078125 48.484375 
Q 22.953125 48.484375 18.875 42.84375 
Q 14.796875 37.203125 14.796875 27.296875 
z
" id="DejaVuSans-100"/>
      </defs>
      <g transform="translate(366.905781 322.182437)scale(0.1 -0.1)">
       <use xlink:href="#DejaVuSans-100"/>
      </g>
     </g>
    </g>
   </g>
   <g id="matplotlib.axis_2">
    <g id="ytick_1">
     <g id="line2d_5">
      <defs>
       <path d="M 0 0 
L -3.5 0 
" id="mc441f3e668" style="stroke:#000000;stroke-width:0.8;"/>
      </defs>
      <g>
       <use style="stroke:#000000;stroke-width:0.8;" x="57.6" xlink:href="#mc441f3e668" y="295.488"/>
      </g>
     </g>
     <g id="text_5">
      <!-- 0 -->
      <defs>
       <path d="M 31.78125 66.40625 
Q 24.171875 66.40625 20.328125 58.90625 
Q 16.5 51.421875 16.5 36.375 
Q 16.5 21.390625 20.328125 13.890625 
Q 24.171875 6.390625 31.78125 6.390625 
Q 39.453125 6.390625 43.28125 13.890625 
Q 47.125 21.390625 47.125 36.375 
Q 47.125 51.421875 43.28125 58.90625 
Q 39.453125 66.40625 31.78125 66.40625 
z
M 31.78125 74.21875 
Q 44.046875 74.21875 50.515625 64.515625 
Q 56.984375 54.828125 56.984375 36.375 
Q 56.984375 17.96875 50.515625 8.265625 
Q 44.046875 -1.421875 31.78125 -1.421875 
Q 19.53125 -1.421875 13.0625 8.265625 
Q 6.59375 17.96875 6.59375 36.375 
Q 6.59375 54.828125 13.0625 64.515625 
Q 19.53125 74.21875 31.78125 74.21875 
z
" id="DejaVuSans-48"/>
      </defs>
      <g transform="translate(44.2375 299.287219)scale(0.1 -0.1)">
       <use xlink:href="#DejaVuSans-48"/>
      </g>
     </g>
    </g>
    <g id="ytick_2">
     <g id="line2d_6">
      <g>
       <use style="stroke:#000000;stroke-width:0.8;" x="57.6" xlink:href="#mc441f3e668" y="247.041162"/>
      </g>
     </g>
     <g id="text_6">
      <!-- 10 -->
      <defs>
       <path d="M 12.40625 8.296875 
L 28.515625 8.296875 
L 28.515625 63.921875 
L 10.984375 60.40625 
L 10.984375 69.390625 
L 28.421875 72.90625 
L 38.28125 72.90625 
L 38.28125 8.296875 
L 54.390625 8.296875 
L 54.390625 0 
L 12.40625 0 
z
" id="DejaVuSans-49"/>
      </defs>
      <g transform="translate(37.875 250.840381)scale(0.1 -0.1)">
       <use xlink:href="#DejaVuSans-49"/>
       <use x="63.623047" xlink:href="#DejaVuSans-48"/>
      </g>
     </g>
    </g>
    <g id="ytick_3">
     <g id="line2d_7">
      <g>
       <use style="stroke:#000000;stroke-width:0.8;" x="57.6" xlink:href="#mc441f3e668" y="198.594325"/>
      </g>
     </g>
     <g id="text_7">
      <!-- 20 -->
      <defs>
       <path d="M 19.1875 8.296875 
L 53.609375 8.296875 
L 53.609375 0 
L 7.328125 0 
L 7.328125 8.296875 
Q 12.9375 14.109375 22.625 23.890625 
Q 32.328125 33.6875 34.8125 36.53125 
Q 39.546875 41.84375 41.421875 45.53125 
Q 43.3125 49.21875 43.3125 52.78125 
Q 43.3125 58.59375 39.234375 62.25 
Q 35.15625 65.921875 28.609375 65.921875 
Q 23.96875 65.921875 18.8125 64.3125 
Q 13.671875 62.703125 7.8125 59.421875 
L 7.8125 69.390625 
Q 13.765625 71.78125 18.9375 73 
Q 24.125 74.21875 28.421875 74.21875 
Q 39.75 74.21875 46.484375 68.546875 
Q 53.21875 62.890625 53.21875 53.421875 
Q 53.21875 48.921875 51.53125 44.890625 
Q 49.859375 40.875 45.40625 35.40625 
Q 44.1875 33.984375 37.640625 27.21875 
Q 31.109375 20.453125 19.1875 8.296875 
z
" id="DejaVuSans-50"/>
      </defs>
      <g transform="translate(37.875 202.393543)scale(0.1 -0.1)">
       <use xlink:href="#DejaVuSans-50"/>
       <use x="63.623047" xlink:href="#DejaVuSans-48"/>
      </g>
     </g>
    </g>
    <g id="ytick_4">
     <g id="line2d_8">
      <g>
       <use style="stroke:#000000;stroke-width:0.8;" x="57.6" xlink:href="#mc441f3e668" y="150.147487"/>
      </g>
     </g>
     <g id="text_8">
      <!-- 30 -->
      <defs>
       <path d="M 40.578125 39.3125 
Q 47.65625 37.796875 51.625 33 
Q 55.609375 28.21875 55.609375 21.1875 
Q 55.609375 10.40625 48.1875 4.484375 
Q 40.765625 -1.421875 27.09375 -1.421875 
Q 22.515625 -1.421875 17.65625 -0.515625 
Q 12.796875 0.390625 7.625 2.203125 
L 7.625 11.71875 
Q 11.71875 9.328125 16.59375 8.109375 
Q 21.484375 6.890625 26.8125 6.890625 
Q 36.078125 6.890625 40.9375 10.546875 
Q 45.796875 14.203125 45.796875 21.1875 
Q 45.796875 27.640625 41.28125 31.265625 
Q 36.765625 34.90625 28.71875 34.90625 
L 20.21875 34.90625 
L 20.21875 43.015625 
L 29.109375 43.015625 
Q 36.375 43.015625 40.234375 45.921875 
Q 44.09375 48.828125 44.09375 54.296875 
Q 44.09375 59.90625 40.109375 62.90625 
Q 36.140625 65.921875 28.71875 65.921875 
Q 24.65625 65.921875 20.015625 65.03125 
Q 15.375 64.15625 9.8125 62.3125 
L 9.8125 71.09375 
Q 15.4375 72.65625 20.34375 73.4375 
Q 25.25 74.21875 29.59375 74.21875 
Q 40.828125 74.21875 47.359375 69.109375 
Q 53.90625 64.015625 53.90625 55.328125 
Q 53.90625 49.265625 50.4375 45.09375 
Q 46.96875 40.921875 40.578125 39.3125 
z
" id="DejaVuSans-51"/>
      </defs>
      <g transform="translate(37.875 153.946706)scale(0.1 -0.1)">
       <use xlink:href="#DejaVuSans-51"/>
       <use x="63.623047" xlink:href="#DejaVuSans-48"/>
      </g>
     </g>
    </g>
    <g id="ytick_5">
     <g id="line2d_9">
      <g>
       <use style="stroke:#000000;stroke-width:0.8;" x="57.6" xlink:href="#mc441f3e668" y="101.700649"/>
      </g>
     </g>
     <g id="text_9">
      <!-- 40 -->
      <defs>
       <path d="M 37.796875 64.3125 
L 12.890625 25.390625 
L 37.796875 25.390625 
z
M 35.203125 72.90625 
L 47.609375 72.90625 
L 47.609375 25.390625 
L 58.015625 25.390625 
L 58.015625 17.1875 
L 47.609375 17.1875 
L 47.609375 0 
L 37.796875 0 
L 37.796875 17.1875 
L 4.890625 17.1875 
L 4.890625 26.703125 
z
" id="DejaVuSans-52"/>
      </defs>
      <g transform="translate(37.875 105.499868)scale(0.1 -0.1)">
       <use xlink:href="#DejaVuSans-52"/>
       <use x="63.623047" xlink:href="#DejaVuSans-48"/>
      </g>
     </g>
    </g>
    <g id="ytick_6">
     <g id="line2d_10">
      <g>
       <use style="stroke:#000000;stroke-width:0.8;" x="57.6" xlink:href="#mc441f3e668" y="53.253812"/>
      </g>
     </g>
     <g id="text_10">
      <!-- 50 -->
      <defs>
       <path d="M 10.796875 72.90625 
L 49.515625 72.90625 
L 49.515625 64.59375 
L 19.828125 64.59375 
L 19.828125 46.734375 
Q 21.96875 47.46875 24.109375 47.828125 
Q 26.265625 48.1875 28.421875 48.1875 
Q 40.625 48.1875 47.75 41.5 
Q 54.890625 34.8125 54.890625 23.390625 
Q 54.890625 11.625 47.5625 5.09375 
Q 40.234375 -1.421875 26.90625 -1.421875 
Q 22.3125 -1.421875 17.546875 -0.640625 
Q 12.796875 0.140625 7.71875 1.703125 
L 7.71875 11.625 
Q 12.109375 9.234375 16.796875 8.0625 
Q 21.484375 6.890625 26.703125 6.890625 
Q 35.15625 6.890625 40.078125 11.328125 
Q 45.015625 15.765625 45.015625 23.390625 
Q 45.015625 31 40.078125 35.4375 
Q 35.15625 39.890625 26.703125 39.890625 
Q 22.75 39.890625 18.8125 39.015625 
Q 14.890625 38.140625 10.796875 36.28125 
z
" id="DejaVuSans-53"/>
      </defs>
      <g transform="translate(37.875 57.05303)scale(0.1 -0.1)">
       <use xlink:href="#DejaVuSans-53"/>
       <use x="63.623047" xlink:href="#DejaVuSans-48"/>
      </g>
     </g>
    </g>
   </g>
   <g id="line2d_11">
    <path clip-path="url(#p9ffe8fd185)" d="M 66.528 295.488 
L 137.952 295.488 
" style="fill:none;stroke:#262626;stroke-linecap:square;stroke-opacity:0.45;stroke-width:1.5;"/>
   </g>
   <g id="line2d_12">
    <path clip-path="url(#p9ffe8fd185)" d="M 155.808 295.488 
L 227.232 295.488 
" style="fill:none;stroke:#262626;stroke-linecap:square;stroke-opacity:0.45;stroke-width:1.5;"/>
   </g>
   <g id="line2d_13">
    <path clip-path="url(#p9ffe8fd185)" d="M 245.088 295.488 
L 316.512 295.488 
" style="fill:none;stroke:#262626;stroke-linecap:square;stroke-opacity:0.45;stroke-width:1.5;"/>
   </g>
   <g id="line2d_14">
    <path clip-path="url(#p9ffe8fd185)" d="M 334.368 295.488 
L 405.792 295.488 
" style="fill:none;stroke:#262626;stroke-linecap:square;stroke-opacity:0.45;stroke-width:1.5;"/>
   </g>
   <g id="patch_3">
    <path d="M 57.6 307.584 
L 57.6 41.472 
" style="fill:none;stroke:#000000;stroke-linecap:square;stroke-linejoin:miter;stroke-width:0.8;"/>
   </g>
   <g id="patch_4">
    <path d="M 414.72 307.584 
L 414.72 41.472 
" style="fill:none;stroke:#000000;stroke-linecap:square;stroke-linejoin:miter;stroke-width:0.8;"/>
   </g>
   <g id="patch_5">
    <path d="M 57.6 307.584 
L 414.72 307.584 
" style="fill:none;stroke:#000000;stroke-linecap:square;stroke-linejoin:miter;stroke-width:0.8;"/>
   </g>
   <g id="patch_6">
    <path d="M 57.6 41.472 
L 414.72 41.472 
" style="fill:none;stroke:#000000;stroke-linecap:square;stroke-linejoin:miter;stroke-width:0.8;"/>
   </g>
   <g id="text_11">
    <!-- Boxenplots der (normalisierten) Counts aller Samples -->
    <defs>
     <path d="M 19.671875 34.8125 
L 19.671875 8.109375 
L 35.5 8.109375 
Q 43.453125 8.109375 47.28125 11.40625 
Q 51.125 14.703125 51.125 21.484375 
Q 51.125 28.328125 47.28125 31.5625 
Q 43.453125 34.8125 35.5 34.8125 
z
M 19.671875 64.796875 
L 19.671875 42.828125 
L 34.28125 42.828125 
Q 41.5 42.828125 45.03125 45.53125 
Q 48.578125 48.25 48.578125 53.8125 
Q 48.578125 59.328125 45.03125 62.0625 
Q 41.5 64.796875 34.28125 64.796875 
z
M 9.8125 72.90625 
L 35.015625 72.90625 
Q 46.296875 72.90625 52.390625 68.21875 
Q 58.5 63.53125 58.5 54.890625 
Q 58.5 48.1875 55.375 44.234375 
Q 52.25 40.28125 46.1875 39.3125 
Q 53.46875 37.75 57.5 32.78125 
Q 61.53125 27.828125 61.53125 20.40625 
Q 61.53125 10.640625 54.890625 5.3125 
Q 48.25 0 35.984375 0 
L 9.8125 0 
z
" id="DejaVuSans-66"/>
     <path d="M 30.609375 48.390625 
Q 23.390625 48.390625 19.1875 42.75 
Q 14.984375 37.109375 14.984375 27.296875 
Q 14.984375 17.484375 19.15625 11.84375 
Q 23.34375 6.203125 30.609375 6.203125 
Q 37.796875 6.203125 41.984375 11.859375 
Q 46.1875 17.53125 46.1875 27.296875 
Q 46.1875 37.015625 41.984375 42.703125 
Q 37.796875 48.390625 30.609375 48.390625 
z
M 30.609375 56 
Q 42.328125 56 49.015625 48.375 
Q 55.71875 40.765625 55.71875 27.296875 
Q 55.71875 13.875 49.015625 6.21875 
Q 42.328125 -1.421875 30.609375 -1.421875 
Q 18.84375 -1.421875 12.171875 6.21875 
Q 5.515625 13.875 5.515625 27.296875 
Q 5.515625 40.765625 12.171875 48.375 
Q 18.84375 56 30.609375 56 
z
" id="DejaVuSans-111"/>
     <path d="M 54.890625 54.6875 
L 35.109375 28.078125 
L 55.90625 0 
L 45.3125 0 
L 29.390625 21.484375 
L 13.484375 0 
L 2.875 0 
L 24.125 28.609375 
L 4.6875 54.6875 
L 15.28125 54.6875 
L 29.78125 35.203125 
L 44.28125 54.6875 
z
" id="DejaVuSans-120"/>
     <path d="M 56.203125 29.59375 
L 56.203125 25.203125 
L 14.890625 25.203125 
Q 15.484375 15.921875 20.484375 11.0625 
Q 25.484375 6.203125 34.421875 6.203125 
Q 39.59375 6.203125 44.453125 7.46875 
Q 49.3125 8.734375 54.109375 11.28125 
L 54.109375 2.78125 
Q 49.265625 0.734375 44.1875 -0.34375 
Q 39.109375 -1.421875 33.890625 -1.421875 
Q 20.796875 -1.421875 13.15625 6.1875 
Q 5.515625 13.8125 5.515625 26.8125 
Q 5.515625 40.234375 12.765625 48.109375 
Q 20.015625 56 32.328125 56 
Q 43.359375 56 49.78125 48.890625 
Q 56.203125 41.796875 56.203125 29.59375 
z
M 47.21875 32.234375 
Q 47.125 39.59375 43.09375 43.984375 
Q 39.0625 48.390625 32.421875 48.390625 
Q 24.90625 48.390625 20.390625 44.140625 
Q 15.875 39.890625 15.1875 32.171875 
z
" id="DejaVuSans-101"/>
     <path d="M 54.890625 33.015625 
L 54.890625 0 
L 45.90625 0 
L 45.90625 32.71875 
Q 45.90625 40.484375 42.875 44.328125 
Q 39.84375 48.1875 33.796875 48.1875 
Q 26.515625 48.1875 22.3125 43.546875 
Q 18.109375 38.921875 18.109375 30.90625 
L 18.109375 0 
L 9.078125 0 
L 9.078125 54.6875 
L 18.109375 54.6875 
L 18.109375 46.1875 
Q 21.34375 51.125 25.703125 53.5625 
Q 30.078125 56 35.796875 56 
Q 45.21875 56 50.046875 50.171875 
Q 54.890625 44.34375 54.890625 33.015625 
z
" id="DejaVuSans-110"/>
     <path d="M 18.109375 8.203125 
L 18.109375 -20.796875 
L 9.078125 -20.796875 
L 9.078125 54.6875 
L 18.109375 54.6875 
L 18.109375 46.390625 
Q 20.953125 51.265625 25.265625 53.625 
Q 29.59375 56 35.59375 56 
Q 45.5625 56 51.78125 48.09375 
Q 58.015625 40.1875 58.015625 27.296875 
Q 58.015625 14.40625 51.78125 6.484375 
Q 45.5625 -1.421875 35.59375 -1.421875 
Q 29.59375 -1.421875 25.265625 0.953125 
Q 20.953125 3.328125 18.109375 8.203125 
z
M 48.6875 27.296875 
Q 48.6875 37.203125 44.609375 42.84375 
Q 40.53125 48.484375 33.40625 48.484375 
Q 26.265625 48.484375 22.1875 42.84375 
Q 18.109375 37.203125 18.109375 27.296875 
Q 18.109375 17.390625 22.1875 11.75 
Q 26.265625 6.109375 33.40625 6.109375 
Q 40.53125 6.109375 44.609375 11.75 
Q 48.6875 17.390625 48.6875 27.296875 
z
" id="DejaVuSans-112"/>
     <path d="M 9.421875 75.984375 
L 18.40625 75.984375 
L 18.40625 0 
L 9.421875 0 
z
" id="DejaVuSans-108"/>
     <path d="M 18.3125 70.21875 
L 18.3125 54.6875 
L 36.8125 54.6875 
L 36.8125 47.703125 
L 18.3125 47.703125 
L 18.3125 18.015625 
Q 18.3125 11.328125 20.140625 9.421875 
Q 21.96875 7.515625 27.59375 7.515625 
L 36.8125 7.515625 
L 36.8125 0 
L 27.59375 0 
Q 17.1875 0 13.234375 3.875 
Q 9.28125 7.765625 9.28125 18.015625 
L 9.28125 47.703125 
L 2.6875 47.703125 
L 2.6875 54.6875 
L 9.28125 54.6875 
L 9.28125 70.21875 
z
" id="DejaVuSans-116"/>
     <path d="M 44.28125 53.078125 
L 44.28125 44.578125 
Q 40.484375 46.53125 36.375 47.5 
Q 32.28125 48.484375 27.875 48.484375 
Q 21.1875 48.484375 17.84375 46.4375 
Q 14.5 44.390625 14.5 40.28125 
Q 14.5 37.15625 16.890625 35.375 
Q 19.28125 33.59375 26.515625 31.984375 
L 29.59375 31.296875 
Q 39.15625 29.25 43.1875 25.515625 
Q 47.21875 21.78125 47.21875 15.09375 
Q 47.21875 7.46875 41.1875 3.015625 
Q 35.15625 -1.421875 24.609375 -1.421875 
Q 20.21875 -1.421875 15.453125 -0.5625 
Q 10.6875 0.296875 5.421875 2 
L 5.421875 11.28125 
Q 10.40625 8.6875 15.234375 7.390625 
Q 20.0625 6.109375 24.8125 6.109375 
Q 31.15625 6.109375 34.5625 8.28125 
Q 37.984375 10.453125 37.984375 14.40625 
Q 37.984375 18.0625 35.515625 20.015625 
Q 33.0625 21.96875 24.703125 23.78125 
L 21.578125 24.515625 
Q 13.234375 26.265625 9.515625 29.90625 
Q 5.8125 33.546875 5.8125 39.890625 
Q 5.8125 47.609375 11.28125 51.796875 
Q 16.75 56 26.8125 56 
Q 31.78125 56 36.171875 55.265625 
Q 40.578125 54.546875 44.28125 53.078125 
z
" id="DejaVuSans-115"/>
     <path id="DejaVuSans-32"/>
     <path d="M 41.109375 46.296875 
Q 39.59375 47.171875 37.8125 47.578125 
Q 36.03125 48 33.890625 48 
Q 26.265625 48 22.1875 43.046875 
Q 18.109375 38.09375 18.109375 28.8125 
L 18.109375 0 
L 9.078125 0 
L 9.078125 54.6875 
L 18.109375 54.6875 
L 18.109375 46.1875 
Q 20.953125 51.171875 25.484375 53.578125 
Q 30.03125 56 36.53125 56 
Q 37.453125 56 38.578125 55.875 
Q 39.703125 55.765625 41.0625 55.515625 
z
" id="DejaVuSans-114"/>
     <path d="M 31 75.875 
Q 24.46875 64.65625 21.28125 53.65625 
Q 18.109375 42.671875 18.109375 31.390625 
Q 18.109375 20.125 21.3125 9.0625 
Q 24.515625 -2 31 -13.1875 
L 23.1875 -13.1875 
Q 15.875 -1.703125 12.234375 9.375 
Q 8.59375 20.453125 8.59375 31.390625 
Q 8.59375 42.28125 12.203125 53.3125 
Q 15.828125 64.359375 23.1875 75.875 
z
" id="DejaVuSans-40"/>
     <path d="M 52 44.1875 
Q 55.375 50.25 60.0625 53.125 
Q 64.75 56 71.09375 56 
Q 79.640625 56 84.28125 50.015625 
Q 88.921875 44.046875 88.921875 33.015625 
L 88.921875 0 
L 79.890625 0 
L 79.890625 32.71875 
Q 79.890625 40.578125 77.09375 44.375 
Q 74.3125 48.1875 68.609375 48.1875 
Q 61.625 48.1875 57.5625 43.546875 
Q 53.515625 38.921875 53.515625 30.90625 
L 53.515625 0 
L 44.484375 0 
L 44.484375 32.71875 
Q 44.484375 40.625 41.703125 44.40625 
Q 38.921875 48.1875 33.109375 48.1875 
Q 26.21875 48.1875 22.15625 43.53125 
Q 18.109375 38.875 18.109375 30.90625 
L 18.109375 0 
L 9.078125 0 
L 9.078125 54.6875 
L 18.109375 54.6875 
L 18.109375 46.1875 
Q 21.1875 51.21875 25.484375 53.609375 
Q 29.78125 56 35.6875 56 
Q 41.65625 56 45.828125 52.96875 
Q 50 49.953125 52 44.1875 
z
" id="DejaVuSans-109"/>
     <path d="M 9.421875 54.6875 
L 18.40625 54.6875 
L 18.40625 0 
L 9.421875 0 
z
M 9.421875 75.984375 
L 18.40625 75.984375 
L 18.40625 64.59375 
L 9.421875 64.59375 
z
" id="DejaVuSans-105"/>
     <path d="M 8.015625 75.875 
L 15.828125 75.875 
Q 23.140625 64.359375 26.78125 53.3125 
Q 30.421875 42.28125 30.421875 31.390625 
Q 30.421875 20.453125 26.78125 9.375 
Q 23.140625 -1.703125 15.828125 -13.1875 
L 8.015625 -13.1875 
Q 14.5 -2 17.703125 9.0625 
Q 20.90625 20.125 20.90625 31.390625 
Q 20.90625 42.671875 17.703125 53.65625 
Q 14.5 64.65625 8.015625 75.875 
z
" id="DejaVuSans-41"/>
     <path d="M 64.40625 67.28125 
L 64.40625 56.890625 
Q 59.421875 61.53125 53.78125 63.8125 
Q 48.140625 66.109375 41.796875 66.109375 
Q 29.296875 66.109375 22.65625 58.46875 
Q 16.015625 50.828125 16.015625 36.375 
Q 16.015625 21.96875 22.65625 14.328125 
Q 29.296875 6.6875 41.796875 6.6875 
Q 48.140625 6.6875 53.78125 8.984375 
Q 59.421875 11.28125 64.40625 15.921875 
L 64.40625 5.609375 
Q 59.234375 2.09375 53.4375 0.328125 
Q 47.65625 -1.421875 41.21875 -1.421875 
Q 24.65625 -1.421875 15.125 8.703125 
Q 5.609375 18.84375 5.609375 36.375 
Q 5.609375 53.953125 15.125 64.078125 
Q 24.65625 74.21875 41.21875 74.21875 
Q 47.75 74.21875 53.53125 72.484375 
Q 59.328125 70.75 64.40625 67.28125 
z
" id="DejaVuSans-67"/>
     <path d="M 8.5 21.578125 
L 8.5 54.6875 
L 17.484375 54.6875 
L 17.484375 21.921875 
Q 17.484375 14.15625 20.5 10.265625 
Q 23.53125 6.390625 29.59375 6.390625 
Q 36.859375 6.390625 41.078125 11.03125 
Q 45.3125 15.671875 45.3125 23.6875 
L 45.3125 54.6875 
L 54.296875 54.6875 
L 54.296875 0 
L 45.3125 0 
L 45.3125 8.40625 
Q 42.046875 3.421875 37.71875 1 
Q 33.40625 -1.421875 27.6875 -1.421875 
Q 18.265625 -1.421875 13.375 4.4375 
Q 8.5 10.296875 8.5 21.578125 
z
M 31.109375 56 
z
" id="DejaVuSans-117"/>
     <path d="M 53.515625 70.515625 
L 53.515625 60.890625 
Q 47.90625 63.578125 42.921875 64.890625 
Q 37.9375 66.21875 33.296875 66.21875 
Q 25.25 66.21875 20.875 63.09375 
Q 16.5 59.96875 16.5 54.203125 
Q 16.5 49.359375 19.40625 46.890625 
Q 22.3125 44.4375 30.421875 42.921875 
L 36.375 41.703125 
Q 47.40625 39.59375 52.65625 34.296875 
Q 57.90625 29 57.90625 20.125 
Q 57.90625 9.515625 50.796875 4.046875 
Q 43.703125 -1.421875 29.984375 -1.421875 
Q 24.8125 -1.421875 18.96875 -0.25 
Q 13.140625 0.921875 6.890625 3.21875 
L 6.890625 13.375 
Q 12.890625 10.015625 18.65625 8.296875 
Q 24.421875 6.59375 29.984375 6.59375 
Q 38.421875 6.59375 43.015625 9.90625 
Q 47.609375 13.234375 47.609375 19.390625 
Q 47.609375 24.75 44.3125 27.78125 
Q 41.015625 30.8125 33.5 32.328125 
L 27.484375 33.5 
Q 16.453125 35.6875 11.515625 40.375 
Q 6.59375 45.0625 6.59375 53.421875 
Q 6.59375 63.09375 13.40625 68.65625 
Q 20.21875 74.21875 32.171875 74.21875 
Q 37.3125 74.21875 42.625 73.28125 
Q 47.953125 72.359375 53.515625 70.515625 
z
" id="DejaVuSans-83"/>
    </defs>
    <g transform="translate(75.195 35.472)scale(0.12 -0.12)">
     <use xlink:href="#DejaVuSans-66"/>
     <use x="68.603516" xlink:href="#DejaVuSans-111"/>
     <use x="129.738281" xlink:href="#DejaVuSans-120"/>
     <use x="188.871094" xlink:href="#DejaVuSans-101"/>
     <use x="250.394531" xlink:href="#DejaVuSans-110"/>
     <use x="313.773438" xlink:href="#DejaVuSans-112"/>
     <use x="377.25" xlink:href="#DejaVuSans-108"/>
     <use x="405.033203" xlink:href="#DejaVuSans-111"/>
     <use x="466.214844" xlink:href="#DejaVuSans-116"/>
     <use x="505.423828" xlink:href="#DejaVuSans-115"/>
     <use x="557.523438" xlink:href="#DejaVuSans-32"/>
     <use x="589.310547" xlink:href="#DejaVuSans-100"/>
     <use x="652.787109" xlink:href="#DejaVuSans-101"/>
     <use x="714.310547" xlink:href="#DejaVuSans-114"/>
     <use x="755.423828" xlink:href="#DejaVuSans-32"/>
     <use x="787.210938" xlink:href="#DejaVuSans-40"/>
     <use x="826.224609" xlink:href="#DejaVuSans-110"/>
     <use x="889.603516" xlink:href="#DejaVuSans-111"/>
     <use x="950.785156" xlink:href="#DejaVuSans-114"/>
     <use x="991.882812" xlink:href="#DejaVuSans-109"/>
     <use x="1089.294922" xlink:href="#DejaVuSans-97"/>
     <use x="1150.574219" xlink:href="#DejaVuSans-108"/>
     <use x="1178.357422" xlink:href="#DejaVuSans-105"/>
     <use x="1206.140625" xlink:href="#DejaVuSans-115"/>
     <use x="1258.240234" xlink:href="#DejaVuSans-105"/>
     <use x="1286.023438" xlink:href="#DejaVuSans-101"/>
     <use x="1347.546875" xlink:href="#DejaVuSans-114"/>
     <use x="1388.660156" xlink:href="#DejaVuSans-116"/>
     <use x="1427.869141" xlink:href="#DejaVuSans-101"/>
     <use x="1489.392578" xlink:href="#DejaVuSans-110"/>
     <use x="1552.771484" xlink:href="#DejaVuSans-41"/>
     <use x="1591.785156" xlink:href="#DejaVuSans-32"/>
     <use x="1623.572266" xlink:href="#DejaVuSans-67"/>
     <use x="1693.396484" xlink:href="#DejaVuSans-111"/>
     <use x="1754.578125" xlink:href="#DejaVuSans-117"/>
     <use x="1817.957031" xlink:href="#DejaVuSans-110"/>
     <use x="1881.335938" xlink:href="#DejaVuSans-116"/>
     <use x="1920.544922" xlink:href="#DejaVuSans-115"/>
     <use x="1972.644531" xlink:href="#DejaVuSans-32"/>
     <use x="2004.431641" xlink:href="#DejaVuSans-97"/>
     <use x="2065.710938" xlink:href="#DejaVuSans-108"/>
     <use x="2093.494141" xlink:href="#DejaVuSans-108"/>
     <use x="2121.277344" xlink:href="#DejaVuSans-101"/>
     <use x="2182.800781" xlink:href="#DejaVuSans-114"/>
     <use x="2223.914062" xlink:href="#DejaVuSans-32"/>
     <use x="2255.701172" xlink:href="#DejaVuSans-83"/>
     <use x="2319.177734" xlink:href="#DejaVuSans-97"/>
     <use x="2380.457031" xlink:href="#DejaVuSans-109"/>
     <use x="2477.869141" xlink:href="#DejaVuSans-112"/>
     <use x="2541.345703" xlink:href="#DejaVuSans-108"/>
     <use x="2569.128906" xlink:href="#DejaVuSans-101"/>
     <use x="2630.652344" xlink:href="#DejaVuSans-115"/>
    </g>
   </g>
  </g>
 </g>
 <defs>
  <clipPath id="p9ffe8fd185">
   <rect height="266.112" width="357.12" x="57.6" y="41.472"/>
  </clipPath>
 </defs>
</svg>
